<svg width="31" height="18" viewBox="0 0 31 18" fill="none" xmlns="http://www.w3.org/2000/svg">
<path d="M28.9643 1H2.03571C1.46371 1 1 1.44772 1 2V16C1 16.5523 1.46371 17 2.03571 17H28.9643C29.5363 17 30 16.5523 30 16V2C30 1.44772 29.5363 1 28.9643 1Z" stroke="#1C1F35" stroke-width="1.5" stroke-linecap="round" stroke-linejoin="round"/>
<path d="M15.5 13C17.433 13 19 11.433 19 9.5C19 7.567 17.433 6 15.5 6C13.567 6 12 7.567 12 9.5C12 11.433 13.567 13 15.5 13Z" stroke="#1C1F35" stroke-width="1.5" stroke-linecap="round" stroke-linejoin="round"/>
<path d="M22 1L30 8" stroke="#1C1F35" stroke-width="1.5" stroke-linecap="round" stroke-linejoin="round"/>
<path d="M22 17L30 10" stroke="#1C1F35" stroke-width="1.5" stroke-linecap="round" stroke-linejoin="round"/>
<path d="M9 1L1 8" stroke="#1C1F35" stroke-width="1.5" stroke-linecap="round" stroke-linejoin="round"/>
<path d="M9 17L1 10" stroke="#1C1F35" stroke-width="1.5" stroke-linecap="round" stroke-linejoin="round"/>
</svg>
